<svg width="300" height="300" viewBox="0 0 300 300" fill="none" xmlns="http://www.w3.org/2000/svg">
<g clip-path="url(#clip0_1002_577)">
<path d="M150 300C232.843 300 300 232.843 300 150C300 67.1573 232.843 0 150 0C67.1573 0 0 67.1573 0 150C0 232.843 67.1573 300 150 300Z" fill="url(#paint0_linear_1002_577)"/>
<g clip-path="url(#clip1_1002_577)">
<path d="M245 105.421V194.58C245.001 196.927 244.498 199.248 243.525 201.384L188.56 146.42L240.676 94.3035C243.46 97.3363 245.003 101.304 245 105.421ZM122.932 142.729L122.936 142.733L150.212 170.007L231.084 89.1341C230.234 89.0004 229.374 88.933 228.514 88.9326H71.4881C70.7519 88.9341 70.0166 88.9847 69.2871 89.084L122.928 142.727L122.932 142.729ZM59.5274 94.089C56.6189 97.1446 54.9978 101.202 55 105.421V194.58C54.9974 197.034 55.5463 199.458 56.6061 201.673L111.859 146.42L59.5274 94.089ZM153.901 181.08C153.416 181.564 152.84 181.949 152.207 182.211C151.574 182.474 150.895 182.609 150.21 182.609C149.524 182.609 148.845 182.474 148.212 182.211C147.579 181.949 147.003 181.564 146.519 181.08L119.241 153.802L63.8554 209.187C66.2093 210.424 68.8289 211.07 71.4881 211.068H228.512C231.276 211.071 233.997 210.374 236.42 209.043L181.179 153.802L153.901 181.08Z" fill="white"/>
</g>
</g>
<defs>
<linearGradient id="paint0_linear_1002_577" x1="43.9336" y1="256.065" x2="256.066" y2="43.9336" gradientUnits="userSpaceOnUse">
<stop stop-color="#560DFF"/>
<stop offset="1" stop-color="#73ECFF"/>
</linearGradient>
<clipPath id="clip0_1002_577">
<rect width="300" height="300" fill="white"/>
</clipPath>
<clipPath id="clip1_1002_577">
<rect width="190" height="190" fill="white" transform="translate(55 55)"/>
</clipPath>
</defs>
</svg>
