<svg width="300" height="300" viewBox="0 0 300 300" fill="none" xmlns="http://www.w3.org/2000/svg">
<g clip-path="url(#clip0_1002_637)">
<path d="M150 300C232.843 300 300 232.843 300 150C300 67.1573 232.843 0 150 0C67.1573 0 0 67.1573 0 150C0 232.843 67.1573 300 150 300Z" fill="url(#paint0_linear_1002_637)"/>
<path d="M218.954 83.9317C218.954 83.9317 234.333 77.9348 233.046 92.4975C232.623 98.4944 228.779 119.485 225.786 142.186L215.534 209.439C215.534 209.439 214.679 219.291 206.988 221.005C199.301 222.715 187.767 215.008 185.629 213.294C183.919 212.008 153.59 192.73 142.911 183.31C139.918 180.737 136.498 175.599 143.338 169.602L188.19 126.765C193.316 121.627 198.442 109.633 177.083 124.196L117.273 164.888C117.273 164.888 110.437 169.174 97.6236 165.319L69.8519 156.749C69.8519 156.749 59.5998 150.325 77.1154 143.9C119.838 123.768 172.385 103.209 218.946 83.9317H218.954Z" fill="white"/>
</g>
<defs>
<linearGradient id="paint0_linear_1002_637" x1="43.9336" y1="256.065" x2="256.066" y2="43.9336" gradientUnits="userSpaceOnUse">
<stop stop-color="#560DFF"/>
<stop offset="1" stop-color="#73ECFF"/>
</linearGradient>
<clipPath id="clip0_1002_637">
<rect width="300" height="300" fill="white"/>
</clipPath>
</defs>
</svg>
