<svg width="32" height="32" viewBox="0 0 32 32" fill="none" xmlns="http://www.w3.org/2000/svg">
<rect width="32" height="32" rx="6" fill="#2C337E"/>
<path d="M21.4525 10.9975C20.455 10.5325 19.375 10.195 18.25 10C18.2401 9.99972 18.2303 10.0016 18.2212 10.0055C18.2121 10.0093 18.204 10.0152 18.1975 10.0225C18.0625 10.27 17.905 10.5925 17.8 10.84C16.6067 10.66 15.3932 10.66 14.2 10.84C14.095 10.585 13.9375 10.27 13.795 10.0225C13.7875 10.0075 13.765 10 13.7425 10C12.6175 10.195 11.545 10.5325 10.54 10.9975C10.5325 10.9975 10.525 11.005 10.5175 11.0125C8.47747 14.065 7.91497 17.035 8.19247 19.975C8.19247 19.99 8.19997 20.005 8.21497 20.0125C9.56497 21.0025 10.8625 21.6025 12.145 22C12.1675 22.0075 12.19 22 12.1975 21.985C12.4975 21.5725 12.7675 21.1375 13 20.68C13.015 20.65 13 20.62 12.97 20.6125C12.5425 20.4475 12.1375 20.2525 11.74 20.0275C11.71 20.0125 11.71 19.9675 11.7325 19.945C11.815 19.885 11.8975 19.8175 11.98 19.7575C11.995 19.7425 12.0175 19.7425 12.0325 19.75C14.6125 20.9275 17.395 20.9275 19.945 19.75C19.96 19.7425 19.9825 19.7425 19.9975 19.7575C20.08 19.825 20.1625 19.885 20.245 19.9525C20.275 19.975 20.275 20.02 20.2375 20.035C19.8475 20.2675 19.435 20.455 19.0075 20.62C18.9775 20.6275 18.97 20.665 18.9775 20.6875C19.2175 21.145 19.4875 21.58 19.78 21.9925C19.8025 22 19.825 22.0075 19.8475 22C21.1375 21.6025 22.435 21.0025 23.785 20.0125C23.8 20.005 23.8075 19.99 23.8075 19.975C24.1375 16.5775 23.26 13.63 21.4825 11.0125C21.475 11.005 21.4675 10.9975 21.4525 10.9975ZM13.39 18.1825C12.6175 18.1825 11.9725 17.47 11.9725 16.5925C11.9725 15.715 12.6025 15.0025 13.39 15.0025C14.185 15.0025 14.815 15.7225 14.8075 16.5925C14.8075 17.47 14.1775 18.1825 13.39 18.1825ZM18.6175 18.1825C17.845 18.1825 17.2 17.47 17.2 16.5925C17.2 15.715 17.83 15.0025 18.6175 15.0025C19.4125 15.0025 20.0425 15.7225 20.035 16.5925C20.035 17.47 19.4125 18.1825 18.6175 18.1825Z" fill="white"/>
</svg>
