<svg width="20" height="19" viewBox="0 0 20 19" fill="none" xmlns="http://www.w3.org/2000/svg">
<path d="M18.5525 0.99691C18.3117 1.01443 18.0754 1.07091 17.8527 1.16416H17.8497C17.636 1.24891 16.6197 1.67641 15.0747 2.32441L9.53825 4.65616C5.5655 6.32866 1.66025 7.97566 1.66025 7.97566L1.70675 7.95766C1.70675 7.95766 1.4375 8.04616 1.15625 8.23891C0.982493 8.34948 0.832978 8.49414 0.716747 8.66416C0.578747 8.86666 0.467747 9.17641 0.508997 9.49666C0.576497 10.0382 0.927497 10.3629 1.1795 10.5422C1.4345 10.7237 1.6775 10.8084 1.6775 10.8084H1.6835L5.34575 12.0422C5.51 12.5694 6.46175 15.6984 6.6905 16.4192C6.8255 16.8497 6.95675 17.1189 7.121 17.3244C7.2005 17.4294 7.2935 17.5172 7.40525 17.5877C7.46334 17.6215 7.52529 17.6481 7.58975 17.6672L7.55225 17.6582C7.5635 17.6612 7.5725 17.6702 7.58075 17.6732C7.61075 17.6814 7.631 17.6844 7.66925 17.6904C8.249 17.8659 8.71475 17.5059 8.71475 17.5059L8.741 17.4849L10.9032 15.5162L14.5272 18.2964L14.6097 18.3317C15.365 18.6632 16.13 18.4787 16.5342 18.1532C16.9415 17.8254 17.0997 17.4062 17.0997 17.4062L17.126 17.3387L19.9265 2.99191C20.006 2.63791 20.0262 2.30641 19.9385 1.98466C19.848 1.65903 19.6391 1.37897 19.3527 1.19941C19.1123 1.05325 18.8335 0.982697 18.5525 0.99691ZM18.4767 2.53441C18.4737 2.58166 18.4827 2.57641 18.4617 2.66716V2.67541L15.6875 16.8729C15.6755 16.8932 15.6552 16.9374 15.5997 16.9817C15.5412 17.0282 15.4947 17.0574 15.251 16.9607L10.8185 13.5624L8.141 16.0029L8.7035 12.4104L15.9455 5.66041C16.244 5.38291 16.1442 5.32441 16.1442 5.32441C16.1652 4.98391 15.6935 5.22466 15.6935 5.22466L6.5615 10.8819L6.5585 10.8669L2.1815 9.39316V9.39016L2.17025 9.38791C2.17792 9.38536 2.18543 9.38236 2.19275 9.37891L2.21675 9.36691L2.24 9.35866C2.24 9.35866 6.14825 7.71166 10.121 6.03916C12.11 5.20141 14.114 4.35766 15.6552 3.70666C16.5693 3.32191 17.4843 2.93941 18.4002 2.55916C18.4617 2.53516 18.4325 2.53441 18.4767 2.53441Z" fill="#7F8699"/>
</svg>
