<svg width="32" height="32" viewBox="0 0 32 32" fill="none" xmlns="http://www.w3.org/2000/svg">
<rect width="32" height="32" rx="6" fill="#2C337E"/>
<path d="M23.845 11.5C23.2675 11.7625 22.645 11.935 22 12.0175C22.66 11.62 23.17 10.99 23.41 10.2325C22.7875 10.6075 22.0975 10.87 21.37 11.02C20.7775 10.375 19.945 10 19 10C17.2375 10 15.7975 11.44 15.7975 13.2175C15.7975 13.4725 15.8275 13.72 15.88 13.9525C13.21 13.8175 10.8325 12.535 9.25003 10.5925C8.97253 11.065 8.81503 11.62 8.81503 12.205C8.81503 13.3225 9.37753 14.3125 10.2475 14.875C9.71503 14.875 9.22003 14.725 8.78503 14.5V14.5225C8.78503 16.0825 9.89503 17.3875 11.365 17.68C10.8931 17.8092 10.3976 17.8271 9.91753 17.7325C10.1212 18.3719 10.5202 18.9313 11.0583 19.3322C11.5964 19.7331 12.2466 19.9553 12.9175 19.9675C11.7803 20.8678 10.3705 21.3545 8.92003 21.3475C8.66503 21.3475 8.41003 21.3325 8.15503 21.3025C9.58003 22.2175 11.275 22.75 13.09 22.75C19 22.75 22.2475 17.845 22.2475 13.5925C22.2475 13.45 22.2475 13.315 22.24 13.1725C22.87 12.7225 23.41 12.1525 23.845 11.5Z" fill="white"/>
</svg>
