<svg width="32" height="32" viewBox="0 0 32 32" fill="none" xmlns="http://www.w3.org/2000/svg">
<rect width="32" height="32" rx="6" fill="#2C337E"/>
<path d="M23.5463 12.2049C23.4566 11.871 23.2808 11.5665 23.0365 11.3218C22.7922 11.0772 22.4879 10.901 22.1541 10.8109C20.9254 10.4805 16 10.4805 16 10.4805C16 10.4805 11.0746 10.4805 9.8459 10.8092C9.51195 10.899 9.2075 11.075 8.96314 11.3197C8.71877 11.5644 8.54308 11.8691 8.45371 12.2031C8.125 13.4336 8.125 16 8.125 16C8.125 16 8.125 18.5664 8.45371 19.7951C8.63477 20.4736 9.16914 21.008 9.8459 21.1891C11.0746 21.5195 16 21.5195 16 21.5195C16 21.5195 20.9254 21.5195 22.1541 21.1891C22.8326 21.008 23.3652 20.4736 23.5463 19.7951C23.875 18.5664 23.875 16 23.875 16C23.875 16 23.875 13.4336 23.5463 12.2049ZM14.4355 18.3555V13.6445L18.5137 15.9824L14.4355 18.3555Z" fill="white"/>
</svg>
