<svg width="26" height="27" viewBox="0 0 26 27" fill="none" xmlns="http://www.w3.org/2000/svg">
  <g clip-path="url(#clip0_1186_204)">
    <path d="M25.9877 13.7526C25.9877 12.6464 25.8992 11.8392 25.7078 11.0021H13.259V15.9948H20.5661C20.4189 17.2356 19.6233 19.1041 17.8554 20.3598L17.8307 20.5269L21.7667 23.6209L22.0394 23.6485C24.5438 21.3016 25.9877 17.8484 25.9877 13.7526Z" fill="#4285F4"/>
    <path d="M13.259 26.9073C16.8389 26.9073 19.8442 25.7113 22.0394 23.6485L17.8554 20.3598C16.7358 21.152 15.2331 21.7051 13.259 21.7051C9.75279 21.7051 6.77691 19.3583 5.71609 16.1145L5.5606 16.1279L1.46783 19.3418L1.41431 19.4928C3.59465 23.8876 8.07325 26.9073 13.259 26.9073Z" fill="#34A853"/>
    <path d="M5.71604 16.1145C5.43613 15.2774 5.27414 14.3804 5.27414 13.4536C5.27414 12.5268 5.43613 11.6299 5.70131 10.7928L5.6939 10.6145L1.54984 7.34895L1.41426 7.41439C0.515633 9.23812 0 11.2861 0 13.4536C0 15.6211 0.515633 17.669 1.41426 19.4928L5.71604 16.1145Z" fill="#FBBC05"/>
    <path d="M13.259 5.20203C15.7487 5.20203 17.4282 6.29327 18.3858 7.20519L22.1278 3.49794C19.8296 1.33042 16.8389 0 13.259 0C8.07325 0 3.59465 3.01957 1.41431 7.41439L5.70136 10.7928C6.77691 7.54897 9.75279 5.20203 13.259 5.20203Z" fill="#EB4335"/>
  </g>
  <defs>
    <clipPath id="clip0_1186_204">
      <rect width="26" height="27" fill="white"/>
    </clipPath>
  </defs>
</svg>
