<svg width="30" height="29" viewBox="0 0 30 29" fill="none" xmlns="http://www.w3.org/2000/svg">
  <g clip-path="url(#clip0_1171_422)">
    <path d="M29.3046 0L16.4319 9.82121L18.8257 4.0333L29.3046 0Z" fill="#E17726"/>
    <path d="M0.725449 0.0115967L11.1763 4.03402L13.4493 9.89782L0.725449 0.0115967ZM24.1242 20.887L29.8137 20.9987L27.8253 27.9637L20.8828 25.9928L24.1242 20.887ZM5.87561 20.887L9.10494 25.9928L2.17412 27.9639L0.197754 20.9987L5.87561 20.887Z" fill="#E27625"/>
    <path d="M13.1403 8.4042L13.3728 16.1476L6.41528 15.8212L8.39435 12.7426L8.41942 12.713L13.1403 8.4042ZM16.7875 8.3178L21.5805 12.7132L21.6054 12.7427L23.5844 15.8213L16.6284 16.1476L16.7875 8.3178ZM9.30876 20.9095L13.1077 23.9616L8.6947 26.1585L9.30876 20.9095ZM20.6919 20.909L21.2932 26.1586L16.8924 23.9614L20.6919 20.909Z" fill="#E27625"/>
    <path d="M16.9895 23.6739L21.4552 25.9035L17.3013 27.9391L17.3444 26.5937L16.9895 23.6739ZM13.009 23.6749L12.6681 26.5717L12.6961 27.9375L8.53247 25.9035L13.009 23.6749Z" fill="#D5BFB2"/>
    <path d="M11.7196 17.1582L12.8866 19.687L8.91357 18.4869L11.7196 17.1582ZM18.2804 17.1585L21.0997 18.4869L17.1137 19.6866L18.2804 17.1585Z" fill="#233447"/>
    <path d="M9.61241 20.8836L8.97022 26.326L5.52808 21.0026L9.61241 20.8836ZM20.3878 20.8837L24.4723 21.0026L21.0172 26.3262L20.3878 20.8837ZM23.685 15.5134L20.7125 18.6371L18.4207 17.5572L17.3235 19.9357L16.6042 15.8456L23.685 15.5134ZM6.31347 15.5134L13.3957 15.8456L12.6763 19.9357L11.5788 17.5576L9.29917 18.6372L6.31347 15.5134Z" fill="#CC6228"/>
    <path d="M6.11328 14.8724L9.47633 18.3912L9.59281 21.865L6.11328 14.8724ZM23.8903 14.8661L20.4044 21.8712L20.5357 18.3912L23.8903 14.8661ZM13.2314 15.0868L13.3667 15.9652L13.7012 18.1536L13.4861 24.875L12.4695 19.4756L12.4692 19.4197L13.2314 15.0868ZM16.767 15.0746L17.5312 19.4197L17.5309 19.4756L16.5117 24.8885L16.4714 23.5346L16.3123 18.1138L16.767 15.0746Z" fill="#E27525"/>
    <path d="M20.8345 18.2514L20.7207 21.2696L17.173 24.1197L16.4558 23.5972L17.2597 19.3275L20.8345 18.2514ZM9.17773 18.2514L12.7401 19.3275L13.544 23.5972L12.8268 24.1197L9.27898 21.2693L9.17773 18.2514Z" fill="#F5841F"/>
    <path d="M7.85376 25.237L12.3927 27.4545L12.3734 26.5076L12.7533 26.1638H17.2455L17.639 26.5064L17.61 27.4526L22.1202 25.2426L19.9255 27.1126L17.2718 28.9919H12.7168L10.0649 27.1049L7.85376 25.237Z" fill="#C0AC9D"/>
    <path d="M16.6645 23.3787L17.3062 23.8462L17.6822 26.94L17.138 26.4662H12.8635L12.3296 26.9496L12.6933 23.8465L13.3353 23.3787H16.6645Z" fill="#161616"/>
    <path d="M28.4548 0.271873L30 5.05168L29.035 9.88465L29.7221 10.4312L28.7923 11.1627L29.4912 11.7193L28.5657 12.5882L29.1339 13.0124L27.6261 14.8281L21.4421 12.9715L21.3886 12.9419L16.9323 9.06576L28.4548 0.271873ZM1.54523 0.271873L13.0678 9.06576L8.61141 12.9419L8.55785 12.9715L2.37387 14.8281L0.866133 13.0124L1.43379 12.5885L0.508945 11.7193L1.20645 11.1633L0.262617 10.4297L0.975703 9.88284L0 5.05192L1.54523 0.271873Z" fill="#763E1A"/>
    <path d="M21.1397 12.5655L27.692 14.5325L29.8207 21.2975H24.2046L20.3351 21.3477L23.1492 15.6918L21.1397 12.5655ZM8.86034 12.5655L6.85046 15.6918L9.66495 21.3477L5.79718 21.2975H0.191162L2.30792 14.5326L8.86034 12.5655ZM19.1466 4.00103L17.3139 9.10491L16.925 15.9997L16.7761 18.1608L16.7643 23.6814H13.2357L13.2242 18.1712L13.0749 15.9978L12.6858 9.10491L10.8534 4.00103H19.1466Z" fill="#F5841F"/>
  </g>
  <defs>
    <clipPath id="clip0_1171_422">
      <rect width="30" height="29" fill="white"/>
    </clipPath>
  </defs>
</svg>
