<svg width="24" height="24" viewBox="0 0 24 24" fill="none" xmlns="http://www.w3.org/2000/svg">
<g clip-path="url(#clip0_94_4664)">
<path fill-rule="evenodd" clip-rule="evenodd" d="M12 24C18.6274 24 24 18.6274 24 12C24 5.37258 18.6274 0 12 0C5.37258 0 0 5.37258 0 12C0 18.6274 5.37258 24 12 24ZM14.5702 5.00004C15.8559 5.22748 17.0902 5.62113 18.2303 6.16349C18.2474 6.16349 18.256 6.17223 18.2646 6.18098C20.296 9.23393 21.2989 12.6718 20.9218 16.6345C20.9218 16.652 20.9132 16.6695 20.8961 16.6782C19.3532 17.8329 17.8703 18.5327 16.3959 18.9964C16.3702 19.0051 16.3445 18.9964 16.3188 18.9876C15.9845 18.5065 15.6759 17.9991 15.4016 17.4655C15.3931 17.4393 15.4016 17.3955 15.4359 17.3868C15.9245 17.1943 16.3959 16.9757 16.8417 16.7045C16.8845 16.687 16.8845 16.6345 16.8502 16.6083C16.8031 16.5689 16.7559 16.5317 16.7088 16.4945C16.6616 16.4573 16.6145 16.4202 16.5674 16.3808C16.5502 16.3633 16.5245 16.3633 16.5074 16.3721C13.593 17.7455 10.4129 17.7455 7.46426 16.3721C7.44712 16.3633 7.4214 16.3633 7.40426 16.3808C7.35711 16.4158 7.30996 16.453 7.26282 16.4902C7.21568 16.5273 7.16854 16.5645 7.1214 16.5995C7.09568 16.6257 7.09568 16.6782 7.12997 16.6957C7.58427 16.9582 8.04714 17.1856 8.53572 17.378C8.57001 17.3868 8.58715 17.4218 8.57001 17.4568C8.30429 17.9904 7.99571 18.4978 7.65284 18.9789C7.64427 18.9964 7.61855 19.0051 7.59284 18.9964C6.12708 18.5327 4.64419 17.8329 3.10129 16.6782C3.08414 16.6695 3.07557 16.652 3.07557 16.6345C2.75842 13.2054 3.40129 9.7413 5.73279 6.18098C5.74136 6.17223 5.74993 6.16349 5.7585 6.16349C6.9071 5.62113 8.13285 5.22748 9.4186 5.00004C9.44432 5.00004 9.47003 5.00879 9.4786 5.02628C9.64147 5.31496 9.82147 5.68236 9.94147 5.97978C11.3052 5.76984 12.6921 5.76984 14.0559 5.97978C14.1759 5.69111 14.3559 5.31496 14.5102 5.02628C14.5177 5.0177 14.527 5.0109 14.5373 5.00637C14.5477 5.00183 14.5589 4.99967 14.5702 5.00004ZM7.39569 12.6893C7.39569 13.7128 8.13285 14.5438 9.01573 14.5438C9.91576 14.5438 10.6358 13.7128 10.6358 12.6893C10.6444 11.6745 9.92433 10.8348 9.01573 10.8348C8.11571 10.8348 7.39569 11.6658 7.39569 12.6893ZM13.3701 12.6893C13.3701 13.7128 14.1073 14.5438 14.9902 14.5438C15.8988 14.5438 16.6102 13.7128 16.6102 12.6893C16.6188 11.6745 15.8988 10.8348 14.9902 10.8348C14.0902 10.8348 13.3701 11.6658 13.3701 12.6893Z" fill="#6E87AE"/>
</g>
<defs>
<clipPath id="clip0_94_4664">
<rect width="24" height="24" fill="white"/>
</clipPath>
</defs>
</svg>
