<svg width="24" height="24" viewBox="0 0 24 24" fill="none" xmlns="http://www.w3.org/2000/svg">
<g clip-path="url(#clip0_94_4660)">
<path fill-rule="evenodd" clip-rule="evenodd" d="M12 24C18.6274 24 24 18.6274 24 12C24 5.37258 18.6274 0 12 0C5.37258 0 0 5.37258 0 12C0 18.6274 5.37258 24 12 24ZM18.1185 8.05706C18.7763 7.97294 19.4111 7.79706 20 7.52941C19.5564 8.19471 19.0057 8.77588 18.3633 9.23471C18.3709 9.38 18.3709 9.51765 18.3709 9.66294C18.3709 13.9988 15.0593 19 9.03251 19C7.18164 19 5.45316 18.4571 4 17.5241C4.26004 17.5547 4.52008 17.57 4.78011 17.57C6.25927 17.5771 7.69685 17.0809 8.8566 16.1629C8.17243 16.1505 7.50937 15.9239 6.96062 15.5152C6.41188 15.1064 6.00505 14.536 5.79732 13.8841C6.28688 13.9806 6.79214 13.9623 7.27342 13.8306C5.77438 13.5324 4.64245 12.2018 4.64245 10.6112V10.5882C5.08604 10.8176 5.59082 10.9706 6.13384 10.9706C5.24665 10.3971 4.67304 9.38765 4.67304 8.24824C4.67304 7.65176 4.83365 7.08588 5.11663 6.60412C6.7304 8.58471 9.15488 9.89235 11.8776 10.03C11.8241 9.79294 11.7935 9.54059 11.7935 9.28059C11.7935 7.46824 13.262 6 15.0593 6C16.0229 6 16.8719 6.38235 17.4761 7.04C18.218 6.88706 18.9216 6.61941 19.5564 6.23706C19.3117 7.00941 18.7916 7.65176 18.1185 8.05706Z" fill="#6E87AE"/>
</g>
<defs>
<clipPath id="clip0_94_4660">
<rect width="24" height="24" fill="white"/>
</clipPath>
</defs>
</svg>
