<svg width="38" height="28" viewBox="0 0 38 28" fill="none" xmlns="http://www.w3.org/2000/svg">
<g filter="url(#filter0_d_200_757)">
<path d="M24.0609 20C22.4904 20 21.0754 19.5095 19.8392 18.5347H18.1608C16.8957 19.5314 15.4288 20.0193 13.8093 19.9981C11.9833 19.9695 10.2018 19.182 8.92207 17.8373C7.66455 16.516 7.01814 14.9141 7.00032 13.0763C6.98251 11.2302 7.70145 9.41973 8.97233 8.10905C10.3288 6.70966 11.996 6 13.9273 6H24.0291C25.7135 6 27.3054 6.57531 28.5111 7.62051C30.1627 9.05204 31 10.8619 31 12.9992C31 15.2461 30.0781 17.1263 28.2597 18.5874C27.3665 19.3051 26.2957 19.7673 25.1635 19.9225C24.7881 19.9743 24.4201 20 24.0609 20ZM25.0776 19.2858H25.0808H25.0776ZM13.9273 7.28561C12.3507 7.28561 10.9895 7.86542 9.88087 9.00833C8.84413 10.0776 8.25784 11.5558 8.27247 13.0635C8.28679 14.5628 8.81391 15.869 9.83888 16.9457C10.8855 18.0452 12.3396 18.689 13.8287 18.7121C15.2227 18.7388 16.464 18.2914 17.53 17.397C17.6442 17.3015 17.788 17.2491 17.9365 17.2491H20.0635C20.212 17.2491 20.3558 17.3015 20.47 17.3976C21.7422 18.465 23.2621 18.886 24.9924 18.6491C25.8977 18.5244 26.7538 18.1555 27.468 17.5814C28.9676 16.3768 29.7279 14.8351 29.7279 12.9995C29.7279 11.254 29.0398 9.77263 27.6827 8.59629C26.7073 7.751 25.4097 7.28561 24.0291 7.28561H13.9273Z" fill="#02B4FF"/>
</g>
<path d="M23.6829 15.0806C23.9647 14.7952 24.1056 14.4523 24.1056 14.0489C24.1056 13.6465 23.9647 13.302 23.6829 13.0172C23.401 12.7324 23.0603 12.5901 22.6617 12.5901C22.2631 12.5901 21.923 12.7324 21.6406 13.0172C21.3587 13.302 21.2178 13.6465 21.2178 14.0489C21.2178 14.4523 21.3587 14.7952 21.6406 15.0806C21.923 15.3654 22.2631 15.5078 22.6617 15.5078C23.0603 15.5078 23.401 15.3654 23.6829 15.0806Z" fill="#FFBD2B"/>
<path d="M26.5715 12.1623C26.8534 11.8775 26.9943 11.5339 26.9943 11.1309C26.9943 10.7282 26.8534 10.3839 26.5715 10.0992C26.2897 9.81441 25.949 9.67203 25.5504 9.67203C25.1521 9.67203 24.8117 9.81441 24.5292 10.0992C24.2474 10.3839 24.1064 10.7282 24.1064 11.1309C24.1064 11.5336 24.2474 11.8772 24.5292 12.1623C24.8117 12.4477 25.1521 12.5901 25.5504 12.5901C25.949 12.5897 26.2897 12.4473 26.5715 12.1623Z" fill="#FFBD2B"/>
<path d="M21.6758 9.21403H18.4946C18.1434 9.21403 17.8584 8.92605 17.8584 8.57122C17.8584 8.21639 18.1434 7.92842 18.4946 7.92842H21.6758C22.027 7.92842 22.312 8.21639 22.312 8.57122C22.312 8.92605 22.027 9.21403 21.6758 9.21403Z" fill="#02B4FF"/>
<path d="M24.061 17.5371C23.7098 17.5371 23.4248 17.2491 23.4248 16.8943C23.4248 16.5395 23.7098 16.2515 24.061 16.2515C25.7751 16.2515 27.1694 14.8434 27.1694 13.1123C27.1694 12.7575 27.4544 12.4695 27.8056 12.4695C28.1568 12.4695 28.4418 12.7575 28.4418 13.1123C28.4418 15.5521 26.4765 17.5371 24.061 17.5371Z" fill="#FFBD2B"/>
<path d="M15.7903 12.2674H14.3588V10.8211C14.3588 10.4662 14.0737 10.1782 13.7225 10.1782C13.3713 10.1782 13.0863 10.4662 13.0863 10.8211V12.2674H11.6548C11.3036 12.2674 11.0186 12.5553 11.0186 12.9102C11.0186 13.265 11.3036 13.553 11.6548 13.553H13.0863V14.9993C13.0863 15.3541 13.3713 15.6421 13.7225 15.6421C14.0737 15.6421 14.3588 15.3541 14.3588 14.9993V13.553H15.7903C16.1415 13.553 16.4265 13.265 16.4265 12.9102C16.4265 12.5553 16.1415 12.2674 15.7903 12.2674Z" fill="#FFBD2B"/>
<defs>
<filter id="filter0_d_200_757" x="0" y="0" width="38" height="28" filterUnits="userSpaceOnUse" color-interpolation-filters="sRGB">
<feFlood flood-opacity="0" result="BackgroundImageFix"/>
<feColorMatrix in="SourceAlpha" type="matrix" values="0 0 0 0 0 0 0 0 0 0 0 0 0 0 0 0 0 0 127 0" result="hardAlpha"/>
<feOffset dy="1"/>
<feGaussianBlur stdDeviation="3.5"/>
<feComposite in2="hardAlpha" operator="out"/>
<feColorMatrix type="matrix" values="0 0 0 0 0.00392157 0 0 0 0 0.705882 0 0 0 0 1 0 0 0 1 0"/>
<feBlend mode="normal" in2="BackgroundImageFix" result="effect1_dropShadow_200_757"/>
<feBlend mode="normal" in="SourceGraphic" in2="effect1_dropShadow_200_757" result="shape"/>
</filter>
</defs>
</svg>
