<svg width="24" height="24" viewBox="0 0 24 24" fill="none" xmlns="http://www.w3.org/2000/svg">
<path d="M17.0609 19C15.4904 19 14.0754 18.5095 12.8392 17.5347H11.1608C9.89566 18.5314 8.42883 19.0193 6.80929 18.9981C4.9833 18.9695 3.20185 18.182 1.92207 16.8373C0.664551 15.516 0.0181379 13.9141 0.000323389 12.0763C-0.0174911 10.2302 0.701453 8.41973 1.97233 7.10905C3.32878 5.70966 4.99603 5 6.92731 5H17.0291C18.7135 5 20.3054 5.57531 21.5111 6.62051C23.1627 8.05204 24 9.86187 24 11.9992C24 14.2461 23.0781 16.1263 21.2597 17.5874C20.3665 18.3051 19.2957 18.7673 18.1635 18.9225C17.7881 18.9743 17.4201 19 17.0609 19ZM18.0776 18.2858H18.0808H18.0776ZM6.92731 6.28561C5.35073 6.28561 3.98951 6.86542 2.88087 8.00833C1.84413 9.07764 1.25784 10.5558 1.27247 12.0635C1.28679 13.5628 1.81391 14.869 2.83888 15.9457C3.88548 17.0452 5.33959 17.689 6.8287 17.7121C8.22269 17.7388 9.46398 17.2914 10.53 16.397C10.6442 16.3015 10.788 16.2491 10.9365 16.2491H13.0635C13.212 16.2491 13.3558 16.3015 13.47 16.3976C14.7422 17.465 16.2621 17.886 17.9924 17.6491C18.8977 17.5244 19.7538 17.1555 20.468 16.5814C21.9676 15.3768 22.7279 13.8351 22.7279 11.9995C22.7279 10.254 22.0398 8.77263 20.6827 7.59629C19.7073 6.751 18.4097 6.28561 17.0291 6.28561H6.92731Z" fill="#526480"/>
<path d="M16.683 14.0806C16.9648 13.7952 17.1058 13.4523 17.1058 13.0489C17.1058 12.6465 16.9648 12.302 16.683 12.0172C16.4011 11.7324 16.0604 11.5901 15.6618 11.5901C15.2632 11.5901 14.9232 11.7324 14.6407 12.0172C14.3588 12.302 14.2179 12.6465 14.2179 13.0489C14.2179 13.4523 14.3588 13.7952 14.6407 14.0806C14.9232 14.3654 15.2632 14.5078 15.6618 14.5078C16.0604 14.5078 16.4011 14.3654 16.683 14.0806Z" fill="#526480"/>
<path d="M19.5712 11.1623C19.853 10.8775 19.9939 10.5339 19.9939 10.1309C19.9939 9.72816 19.853 9.38394 19.5712 9.09918C19.2893 8.81441 18.9486 8.67203 18.55 8.67203C18.1517 8.67203 17.8113 8.81441 17.5289 9.09918C17.247 9.38394 17.1061 9.72816 17.1061 10.1309C17.1061 10.5336 17.247 10.8772 17.5289 11.1623C17.8113 11.4477 18.1517 11.5901 18.55 11.5901C18.9486 11.5897 19.2893 11.4473 19.5712 11.1623Z" fill="#526480"/>
<path d="M14.6754 8.21403H11.4942C11.143 8.21403 10.858 7.92605 10.858 7.57122C10.858 7.21639 11.143 6.92842 11.4942 6.92842H14.6754C15.0266 6.92842 15.3116 7.21639 15.3116 7.57122C15.3116 7.92605 15.0266 8.21403 14.6754 8.21403Z" fill="#526480"/>
<path d="M17.0609 16.5371C16.7097 16.5371 16.4247 16.2491 16.4247 15.8943C16.4247 15.5395 16.7097 15.2515 17.0609 15.2515C18.7749 15.2515 20.1692 13.8434 20.1692 12.1123C20.1692 11.7575 20.4543 11.4695 20.8055 11.4695C21.1567 11.4695 21.4417 11.7575 21.4417 12.1123C21.4417 14.5521 19.4764 16.5371 17.0609 16.5371Z" fill="#526480"/>
<path d="M8.79021 11.2674H7.35869V9.82105C7.35869 9.46622 7.07366 9.17825 6.72246 9.17825C6.37125 9.17825 6.08622 9.46622 6.08622 9.82105V11.2674H4.6547C4.3035 11.2674 4.01846 11.5553 4.01846 11.9102C4.01846 12.265 4.3035 12.553 4.6547 12.553H6.08622V13.9993C6.08622 14.3541 6.37125 14.6421 6.72246 14.6421C7.07366 14.6421 7.35869 14.3541 7.35869 13.9993V12.553H8.79021C9.14141 12.553 9.42645 12.265 9.42645 11.9102C9.42645 11.5553 9.14141 11.2674 8.79021 11.2674Z" fill="#526480"/>
</svg>
