<svg width="24" height="23" viewBox="0 0 24 23" fill="none" xmlns="http://www.w3.org/2000/svg">
<path fill-rule="evenodd" clip-rule="evenodd" d="M12.2258 0.53804H14.3829C15.8142 0.538035 16.9364 0.538032 17.8384 0.611722C18.7567 0.686759 19.5154 0.842088 20.2022 1.192C21.3312 1.76724 22.249 2.68513 22.8243 3.8141C23.1742 4.50084 23.3296 5.25957 23.4046 6.17797C23.4783 7.0799 23.4783 8.20209 23.4783 9.63344V14.0807C23.4783 16.6865 21.3658 18.7989 18.76 18.7989H18.1321C17.8728 18.7989 17.6955 19.0608 17.7918 19.3015C18.5083 21.0929 16.4453 22.7122 14.8754 21.5909L12.9381 20.2072C12.5043 20.3612 12.0425 20.4547 11.5628 20.4777C11.4478 20.4832 11.3041 20.4832 11.0776 20.4832H11.0496L10.9897 20.4833C10.3238 20.4875 9.67419 20.6982 9.128 21.0884L9.08905 21.1164L6.97019 22.6506C5.57368 23.6617 3.83182 22.1815 4.43392 20.6558C4.45141 20.6114 4.44544 20.5694 4.42135 20.5334C4.39758 20.4978 4.36724 20.4832 4.33204 20.4832H3.84366C1.71091 20.4832 2.42321e-07 18.7337 2.42321e-07 16.5978L1.17104e-07 13.0853C-5.72637e-06 11.9623 -1.03284e-05 11.0722 0.0578168 10.3548C0.116937 9.62136 0.24029 9.00016 0.525664 8.43245C0.988298 7.5121 1.72753 6.76186 2.63918 6.29101C2.8246 6.19524 3.01574 6.11737 3.21478 6.05383C3.29369 5.18906 3.45141 4.46763 3.78439 3.8141C4.35963 2.68513 5.27752 1.76724 6.40649 1.192C7.09324 0.842088 7.85195 0.686759 8.77037 0.611722C9.6723 0.538032 10.7945 0.538035 12.2258 0.53804ZM4.81894 5.79498C5.47666 5.75536 6.25402 5.75539 7.18805 5.75543H8.93333C10.0402 5.75543 10.9194 5.75542 11.6284 5.81414C12.3544 5.87426 12.9711 5.9999 13.5347 6.29101C14.4464 6.76186 15.1856 7.5121 15.6482 8.43245C15.9336 9.00016 16.0569 9.62136 16.1161 10.3548C16.1739 11.0722 16.1739 11.9623 16.1739 13.0853V15.3631C16.1739 15.5707 16.1739 15.7026 16.1685 15.8183C16.1023 17.2364 15.4421 18.4974 14.4307 19.3497L15.7851 20.3172C16.083 20.53 16.4744 20.2227 16.3385 19.8828C15.8309 18.614 16.7655 17.2337 18.1321 17.2337H18.76C20.5014 17.2337 21.913 15.822 21.913 14.0807V9.66847C21.913 8.19456 21.9124 7.13618 21.8446 6.30543C21.7774 5.48382 21.6484 4.954 21.4297 4.5247C21.0045 3.69024 20.326 3.0118 19.4917 2.58662C19.0623 2.36787 18.5325 2.23887 17.7109 2.17175C16.8801 2.10387 15.8217 2.10326 14.3478 2.10326H12.2609C10.787 2.10326 9.72858 2.10387 8.89782 2.17175C8.07621 2.23887 7.5464 2.36787 7.11708 2.58662C6.28263 3.0118 5.60419 3.69024 5.17901 4.5247C5.00858 4.85919 4.89338 5.25266 4.81894 5.79498ZM7.27536 7.32064C5.70558 7.32064 4.77432 7.32375 4.09459 7.44679C3.78662 7.50253 3.55491 7.57972 3.35742 7.68171C2.74196 7.99958 2.23961 8.50784 1.92414 9.13543C1.76722 9.4476 1.66943 9.84225 1.61798 10.4806C1.56581 11.1278 1.56522 11.9547 1.56522 13.1193V16.5978C1.56522 17.8892 2.59527 18.9179 3.84366 18.9179H4.33204C5.53236 18.9179 6.3215 20.1365 5.88987 21.2303C5.87163 21.2765 5.87643 21.3012 5.88047 21.3147C5.88633 21.3343 5.90115 21.359 5.92714 21.3797C5.95317 21.4004 5.97724 21.4067 5.99082 21.4075C5.99749 21.4079 6.01614 21.4089 6.05227 21.3827L8.17112 19.8486L8.21825 19.8147C9.02581 19.2379 9.98934 18.9245 10.9795 18.918L11.0496 18.9179C11.3131 18.9179 11.4155 18.9177 11.4878 18.9143C11.9231 18.8934 12.3349 18.7869 12.7081 18.6112C13.7833 18.1051 14.5454 17.0223 14.605 15.7452C14.6085 15.671 14.6087 15.5784 14.6087 15.3395V13.1193C14.6087 11.9547 14.6081 11.1278 14.5559 10.4806C14.5045 9.84225 14.4067 9.4476 14.2497 9.13543C13.9343 8.50784 13.432 7.99958 12.8165 7.68171C12.5121 7.52451 12.1267 7.42598 11.4992 7.37402C10.8623 7.32127 10.048 7.32064 8.89855 7.32064H7.27536Z" fill="#526480"/>
</svg>
