<svg width="32" height="28" viewBox="0 0 32 28" fill="none" xmlns="http://www.w3.org/2000/svg">
<path d="M15.9337 15.5333C17.7337 15.5333 19.1337 14.0667 19.1337 12.2667C19.1337 10.4667 17.667 9.06667 15.867 9.06667C14.067 9.06667 12.667 10.5333 12.667 12.2667C12.667 14.0667 14.1337 15.5333 15.9337 15.5333ZM15.867 10.4C15.9337 10.4 15.9337 10.4 15.867 10.4C16.9337 10.4 17.8003 11.2667 17.8003 12.3333C17.8003 13.4 16.9337 14.2 15.867 14.2C14.8003 14.2 14.0003 13.3333 14.0003 12.3333C14.0003 11.2667 14.867 10.4 15.867 10.4Z" fill="#FFBD2B"/>
<g filter="url(#filter0_d_340_1453)">
<path d="M25.8 15.1333C24.5333 14 22.8667 13.4 21.1333 13.4667H20.6C20.4667 14 20.2667 14.4667 20 14.8667C20.4 14.8 20.7333 14.8 21.1333 14.8C22.4 14.7333 23.6667 15.1333 24.6667 15.8667V20.6667H26V15.3333L25.8 15.1333Z" fill="#01B4FF"/>
</g>
<g filter="url(#filter1_d_340_1453)">
<path d="M19.6003 9.2C19.9337 8.4 20.867 8 21.7337 8.33334C22.5337 8.66667 22.9337 9.6 22.6003 10.4667C22.3337 11.0667 21.7337 11.4667 21.1337 11.4667C21.0003 11.4667 20.8003 11.4667 20.667 11.4C20.7337 11.7333 20.7337 12.0667 20.7337 12.3333V12.7333C20.867 12.7333 21.0003 12.8 21.1337 12.8C22.8003 12.8 24.1337 11.4667 24.1337 9.86667C24.1337 8.2 22.8003 6.86667 21.2003 6.86667C20.1337 6.86667 19.2003 7.4 18.667 8.33334C19.0003 8.53334 19.3337 8.8 19.6003 9.2Z" fill="#01B4FF"/>
</g>
<g filter="url(#filter2_d_340_1453)">
<path d="M12 14.9333C11.7333 14.5333 11.5333 14.0667 11.4 13.5333H10.8667C9.13333 13.4667 7.46667 14.0667 6.2 15.1333L6 15.3333V20.6667H7.33333V15.8667C8.4 15.1333 9.6 14.7333 10.8667 14.8C11.2667 14.8 11.6667 14.8667 12 14.9333Z" fill="#01B4FF"/>
</g>
<g filter="url(#filter3_d_340_1453)">
<path d="M10.8662 12.7333C10.9995 12.7333 11.1329 12.7333 11.2662 12.6667V12.2667C11.2662 11.9333 11.2662 11.6 11.3329 11.3333C11.1995 11.4 10.9995 11.4 10.8662 11.4C9.99952 11.4 9.26619 10.6667 9.26619 9.8C9.26619 8.93334 9.99952 8.2 10.8662 8.2C11.5329 8.2 12.1329 8.6 12.3995 9.2C12.6662 8.86667 13.0662 8.53334 13.3995 8.26667C12.5329 6.86667 10.7329 6.4 9.33285 7.26667C7.93285 8.13334 7.46619 9.93334 8.33285 11.3333C8.86619 12.2 9.79952 12.7333 10.8662 12.7333Z" fill="#01B4FF"/>
</g>
<path d="M21.4003 19.1333L21.267 18.9333C19.9337 17.4667 18.067 16.6 16.067 16.6667C14.067 16.6 12.1337 17.4667 10.8003 18.9333L10.667 19.1333V24.2C10.667 24.8 11.1337 25.3333 11.8003 25.3333H20.3337C20.9337 25.3333 21.467 24.8 21.467 24.2V19.1333H21.4003ZM20.067 24H12.0003V19.6C13.067 18.5333 14.5337 18 16.067 18C17.5337 17.9333 19.0003 18.5333 20.067 19.6V24Z" fill="#FFBD2B"/>
<defs>
<filter id="filter0_d_340_1453" x="14" y="7.46165" width="18" height="19.205" filterUnits="userSpaceOnUse" color-interpolation-filters="sRGB">
<feFlood flood-opacity="0" result="BackgroundImageFix"/>
<feColorMatrix in="SourceAlpha" type="matrix" values="0 0 0 0 0 0 0 0 0 0 0 0 0 0 0 0 0 0 127 0" result="hardAlpha"/>
<feOffset/>
<feGaussianBlur stdDeviation="3"/>
<feComposite in2="hardAlpha" operator="out"/>
<feColorMatrix type="matrix" values="0 0 0 0 0.00392157 0 0 0 0 0.705882 0 0 0 0 1 0 0 0 1 0"/>
<feBlend mode="normal" in2="BackgroundImageFix" result="effect1_dropShadow_340_1453"/>
<feBlend mode="normal" in="SourceGraphic" in2="effect1_dropShadow_340_1453" result="shape"/>
</filter>
<filter id="filter1_d_340_1453" x="12.667" y="0.866669" width="17.4668" height="17.9333" filterUnits="userSpaceOnUse" color-interpolation-filters="sRGB">
<feFlood flood-opacity="0" result="BackgroundImageFix"/>
<feColorMatrix in="SourceAlpha" type="matrix" values="0 0 0 0 0 0 0 0 0 0 0 0 0 0 0 0 0 0 127 0" result="hardAlpha"/>
<feOffset/>
<feGaussianBlur stdDeviation="3"/>
<feComposite in2="hardAlpha" operator="out"/>
<feColorMatrix type="matrix" values="0 0 0 0 0.00392157 0 0 0 0 0.705882 0 0 0 0 1 0 0 0 1 0"/>
<feBlend mode="normal" in2="BackgroundImageFix" result="effect1_dropShadow_340_1453"/>
<feBlend mode="normal" in="SourceGraphic" in2="effect1_dropShadow_340_1453" result="shape"/>
</filter>
<filter id="filter2_d_340_1453" x="0" y="7.52831" width="18" height="19.1384" filterUnits="userSpaceOnUse" color-interpolation-filters="sRGB">
<feFlood flood-opacity="0" result="BackgroundImageFix"/>
<feColorMatrix in="SourceAlpha" type="matrix" values="0 0 0 0 0 0 0 0 0 0 0 0 0 0 0 0 0 0 127 0" result="hardAlpha"/>
<feOffset/>
<feGaussianBlur stdDeviation="3"/>
<feComposite in2="hardAlpha" operator="out"/>
<feColorMatrix type="matrix" values="0 0 0 0 0.00392157 0 0 0 0 0.705882 0 0 0 0 1 0 0 0 1 0"/>
<feBlend mode="normal" in2="BackgroundImageFix" result="effect1_dropShadow_340_1453"/>
<feBlend mode="normal" in="SourceGraphic" in2="effect1_dropShadow_340_1453" result="shape"/>
</filter>
<filter id="filter3_d_340_1453" x="1.89551" y="0.829323" width="17.5039" height="17.904" filterUnits="userSpaceOnUse" color-interpolation-filters="sRGB">
<feFlood flood-opacity="0" result="BackgroundImageFix"/>
<feColorMatrix in="SourceAlpha" type="matrix" values="0 0 0 0 0 0 0 0 0 0 0 0 0 0 0 0 0 0 127 0" result="hardAlpha"/>
<feOffset/>
<feGaussianBlur stdDeviation="3"/>
<feComposite in2="hardAlpha" operator="out"/>
<feColorMatrix type="matrix" values="0 0 0 0 0.00392157 0 0 0 0 0.705882 0 0 0 0 1 0 0 0 1 0"/>
<feBlend mode="normal" in2="BackgroundImageFix" result="effect1_dropShadow_340_1453"/>
<feBlend mode="normal" in="SourceGraphic" in2="effect1_dropShadow_340_1453" result="shape"/>
</filter>
</defs>
</svg>
