<svg width="24" height="24" viewBox="0 0 24 24" fill="none" xmlns="http://www.w3.org/2000/svg">
<path d="M11.9333 11.5333C13.7333 11.5333 15.1333 10.0667 15.1333 8.26667C15.1333 6.46667 13.6667 5.06667 11.8667 5.06667C10.0667 5.06667 8.66666 6.53333 8.66666 8.26667C8.66666 10.0667 10.1333 11.5333 11.9333 11.5333ZM11.8667 6.4C11.9333 6.4 11.9333 6.4 11.8667 6.4C12.9333 6.4 13.8 7.26667 13.8 8.33333C13.8 9.4 12.9333 10.2 11.8667 10.2C10.8 10.2 9.99999 9.33333 9.99999 8.33333C9.99999 7.26667 10.8667 6.4 11.8667 6.4Z" fill="#526480"/>
<path d="M21.8 11.1333C20.5333 10 18.8667 9.4 17.1333 9.46667H16.6C16.4667 10 16.2667 10.4667 16 10.8667C16.4 10.8 16.7333 10.8 17.1333 10.8C18.4 10.7333 19.6667 11.1333 20.6667 11.8667V16.6667H22V11.3333L21.8 11.1333Z" fill="#526480"/>
<path d="M15.6 5.2C15.9333 4.4 16.8667 4 17.7333 4.33334C18.5333 4.66667 18.9333 5.6 18.6 6.46667C18.3333 7.06667 17.7333 7.46667 17.1333 7.46667C17 7.46667 16.8 7.46667 16.6667 7.4C16.7333 7.73334 16.7333 8.06667 16.7333 8.33333V8.73334C16.8667 8.73334 17 8.8 17.1333 8.8C18.8 8.8 20.1333 7.46667 20.1333 5.86667C20.1333 4.2 18.8 2.86667 17.2 2.86667C16.1333 2.86667 15.2 3.4 14.6667 4.33334C15 4.53334 15.3333 4.8 15.6 5.2Z" fill="#526480"/>
<path d="M8 10.9333C7.73333 10.5333 7.53333 10.0667 7.4 9.53333H6.86667C5.13333 9.46666 3.46667 10.0667 2.2 11.1333L2 11.3333V16.6667H3.33333V11.8667C4.4 11.1333 5.6 10.7333 6.86667 10.8C7.26667 10.8 7.66667 10.8667 8 10.9333Z" fill="#526480"/>
<path d="M6.86668 8.73334C7.00001 8.73334 7.13334 8.73334 7.26667 8.66667V8.26667C7.26667 7.93334 7.26668 7.6 7.33334 7.33334C7.20001 7.4 7.00001 7.4 6.86668 7.4C6.00001 7.4 5.26668 6.66667 5.26668 5.8C5.26668 4.93334 6.00001 4.2 6.86668 4.2C7.53334 4.2 8.13334 4.6 8.40001 5.2C8.66668 4.86667 9.06668 4.53334 9.40001 4.26667C8.53334 2.86667 6.73334 2.4 5.33334 3.26667C3.93334 4.13334 3.46668 5.93334 4.33334 7.33334C4.86668 8.2 5.80001 8.73334 6.86668 8.73334Z" fill="#526480"/>
<path d="M17.4 15.1333L17.2667 14.9333C15.9333 13.4667 14.0667 12.6 12.0667 12.6667C10.0667 12.6 8.13332 13.4667 6.79999 14.9333L6.66666 15.1333V20.2C6.66666 20.8 7.13332 21.3333 7.79999 21.3333H16.3333C16.9333 21.3333 17.4667 20.8 17.4667 20.2V15.1333H17.4ZM16.0667 20H7.99999V15.6C9.06666 14.5333 10.5333 14 12.0667 14C13.5333 13.9333 15 14.5333 16.0667 15.6V20Z" fill="#526480"/>
</svg>
