<svg width="24" height="24" viewBox="0 0 24 24" fill="none" xmlns="http://www.w3.org/2000/svg">
<g clip-path="url(#clip0_73_594)">
<path d="M12 24C18.6274 24 24 18.6274 24 12C24 5.37258 18.6274 0 12 0C5.37258 0 0 5.37258 0 12C0 18.6274 5.37258 24 12 24Z" fill="url(#paint0_linear_73_594)"/>
<path d="M12 -1.52588e-05C11.6831 -1.52588e-05 11.3691 0.0125024 11.0583 0.0365965C17.2456 0.516879 22.1167 5.68949 22.1167 12C22.1167 18.3105 17.2456 23.4831 11.0583 23.9634C11.3691 23.9875 11.6831 24 12 24C18.6274 24 24 18.6274 24 12C24 5.37255 18.6274 -1.52588e-05 12 -1.52588e-05Z" fill="url(#paint1_linear_73_594)"/>
<path d="M12 20.4758C16.681 20.4758 20.4758 16.681 20.4758 12C20.4758 7.31896 16.681 3.52423 12 3.52423C7.31896 3.52423 3.52423 7.31896 3.52423 12C3.52423 16.681 7.31896 20.4758 12 20.4758Z" fill="url(#paint2_linear_73_594)"/>
<path d="M12 3.52423C11.6816 3.52423 11.3676 3.5424 11.0583 3.57656C15.2961 4.04508 18.5925 7.63731 18.5925 11.9999C18.5925 16.3626 15.2961 19.9549 11.0583 20.4233C11.3676 20.4576 11.6816 20.4757 12 20.4757C16.681 20.4757 20.4758 16.6809 20.4758 11.9999C20.4758 7.31887 16.681 3.52423 12 3.52423Z" fill="url(#paint3_linear_73_594)"/>
<path d="M12.7794 10.7145V8.36842C13.8239 8.44875 14.1291 8.96296 14.6593 8.96296C15.3665 8.96296 15.6556 8.07915 15.6556 7.64531C15.6556 6.53656 13.7755 6.27948 12.7793 6.24733V5.84559C12.7793 5.62065 12.474 5.41176 12.1687 5.41176C11.8152 5.41176 11.5581 5.62065 11.5581 5.84559V6.29552C9.85483 6.53651 8.34434 7.51675 8.34434 9.5575C8.34434 11.6143 10.0798 12.3053 11.5581 12.8677V15.4708C10.369 15.2619 9.82264 14.3139 9.14773 14.3139C8.53714 14.3139 8.05511 15.1173 8.05511 15.6636C8.05511 16.692 9.62984 17.6883 11.5581 17.7526V18.1543C11.5581 18.3792 11.8152 18.5881 12.1687 18.5881C12.474 18.5881 12.7793 18.3792 12.7793 18.1543V17.6882C14.6593 17.3829 15.9449 16.1778 15.9449 14.1853C15.9449 12.016 14.2416 11.2608 12.7794 10.7145ZM11.7188 10.3288C11.1082 10.0718 10.6904 9.78249 10.6904 9.31651C10.6904 8.93086 10.9957 8.56131 11.7188 8.41665V10.3288ZM12.6186 15.4548V13.3015C13.1971 13.5747 13.5988 13.9121 13.5988 14.4424C13.5989 15.0209 13.165 15.3262 12.6186 15.4548Z" fill="url(#paint4_linear_73_594)"/>
</g>
<defs>
<linearGradient id="paint0_linear_73_594" x1="-0.564706" y1="12" x2="23.7242" y2="12" gradientUnits="userSpaceOnUse">
<stop stop-color="#FFF9DF"/>
<stop offset="0.593" stop-color="#FFE177"/>
<stop offset="1" stop-color="#FEB137"/>
</linearGradient>
<linearGradient id="paint1_linear_73_594" x1="2.25882" y1="12" x2="21.7993" y2="12" gradientUnits="userSpaceOnUse">
<stop stop-color="#FFE177"/>
<stop offset="1" stop-color="#FEB137"/>
</linearGradient>
<linearGradient id="paint2_linear_73_594" x1="6.4" y1="12" x2="17.0951" y2="12" gradientUnits="userSpaceOnUse">
<stop stop-color="#FFE177"/>
<stop offset="1" stop-color="#FEB137"/>
</linearGradient>
<linearGradient id="paint3_linear_73_594" x1="9.03529" y1="12" x2="22.2202" y2="12" gradientUnits="userSpaceOnUse">
<stop stop-color="#FEB137"/>
<stop offset="1" stop-color="#ECA026"/>
</linearGradient>
<linearGradient id="paint4_linear_73_594" x1="6.07516" y1="12" x2="17.2296" y2="12" gradientUnits="userSpaceOnUse">
<stop stop-color="#FFF9DF"/>
<stop offset="0.593" stop-color="#FFE177"/>
<stop offset="1" stop-color="#FEB137"/>
</linearGradient>
<clipPath id="clip0_73_594">
<rect width="24" height="24" fill="white"/>
</clipPath>
</defs>
</svg>
