<svg width="25" height="25" viewBox="0 0 25 25" fill="none" xmlns="http://www.w3.org/2000/svg">
<g clip-path="url(#clip0_73_524)">
<path d="M24.393 11.9755V13.8418C24.393 19.954 19.0228 24.905 12.393 24.905C5.7633 24.905 0.393066 19.954 0.393066 13.8418V11.9755H0.562939C0.624882 11.6476 0.701841 11.327 0.787246 11.0138C1.36678 8.97609 2.56434 7.17377 4.17907 5.77768C4.68916 5.33597 5.2457 4.92973 5.83275 4.58103C7.43997 3.61195 9.31749 2.99243 11.3344 2.82846C11.6821 2.79991 12.0298 2.78563 12.3775 2.78563C12.6173 2.78563 12.8491 2.79298 13.081 2.80683C13.1964 2.81418 13.3123 2.8211 13.4207 2.82846C15.4376 2.99243 17.3151 3.61195 18.9223 4.58103C19.5094 4.93708 20.0659 5.33597 20.576 5.7846C22.1907 7.18112 23.3888 8.99037 23.9683 11.0207C24.0608 11.3343 24.1302 11.6618 24.1921 11.9824H24.393V11.9755Z" fill="#136DA0"/>
<path d="M24.393 11.9755C24.393 12.1178 24.393 12.2675 24.3855 12.4098C24.3775 12.5881 24.37 12.7659 24.3465 12.9372C24.1302 15.2665 23.126 17.3894 21.5882 19.0848C21.1401 19.5763 20.6455 20.0323 20.1044 20.4454C18.2733 21.8701 15.9627 22.789 13.4362 22.9889C13.0885 23.017 12.7408 23.0313 12.393 23.0313C12.0378 23.0313 11.6901 23.017 11.3499 22.9889C8.82335 22.789 6.52069 21.8632 4.68165 20.4454C4.1481 20.0323 3.65397 19.5763 3.19784 19.0779C1.65256 17.3824 0.655853 15.2595 0.439523 12.9299C0.408552 12.6093 0.393066 12.2887 0.393066 11.9681C0.393066 11.6406 0.408552 11.32 0.439523 11.0064C0.655853 8.67713 1.66007 6.55423 3.19784 4.85876C3.64599 4.3673 4.14059 3.90395 4.68165 3.4908C6.51271 2.06615 8.82335 1.14725 11.3499 0.947814C11.6976 0.91926 12.0453 0.904984 12.393 0.904984C12.5939 0.904984 12.7947 0.911905 12.9956 0.91926C13.1424 0.926182 13.2893 0.933537 13.4362 0.947814C15.9627 1.14725 18.2654 2.07308 20.1044 3.4908C20.638 3.90395 21.1321 4.35994 21.5882 4.85141C23.1335 6.53995 24.1302 8.66977 24.3465 10.9995C24.3775 11.327 24.393 11.6475 24.393 11.9755Z" fill="#1CAEE4"/>
<path d="M6.35038 5.04391C5.80181 5.44972 5.30721 5.90571 4.87455 6.40453L3.19788 4.86567C3.64602 4.37421 4.14062 3.9113 4.68168 3.49814L6.35038 5.04391Z" fill="#009ADD"/>
<path d="M2.7497 11.9755C2.7497 12.303 2.76518 12.6236 2.80366 12.9372H0.439523C0.408552 12.6166 0.393066 12.2961 0.393066 11.9755C0.393066 11.6475 0.408552 11.327 0.439523 11.0137H2.80366C2.76518 11.327 2.7497 11.6475 2.7497 11.9755Z" fill="#009ADD"/>
<path d="M21.5884 4.86567L19.9192 6.40453C19.9117 6.39025 19.8963 6.38333 19.8883 6.36905C19.8573 6.33314 19.8343 6.30459 19.8033 6.26911C19.7724 6.23364 19.7414 6.20509 19.7109 6.17653C19.6644 6.12678 19.6105 6.06967 19.564 6.01992C19.5251 5.98401 19.4946 5.94854 19.4556 5.91306C19.3787 5.83476 19.3012 5.76337 19.2163 5.68507C19.1544 5.62796 19.0924 5.57085 19.0309 5.51418C18.9765 5.464 18.915 5.41424 18.8531 5.36449C18.7991 5.32166 18.7447 5.27191 18.6907 5.22908C18.6522 5.20053 18.6133 5.16505 18.5748 5.1365C18.5438 5.1153 18.5129 5.08674 18.4819 5.06511C18.4669 5.05084 18.4514 5.03656 18.4359 5.02964L18.9455 4.55937L19.8268 3.74733L20.1046 3.49078C20.6382 3.9113 21.1403 4.37421 21.5884 4.86567Z" fill="#009ADD"/>
<path d="M13.4364 0.954736V3.13474C13.359 3.12739 13.282 3.12047 13.2046 3.11311C13.1816 3.11311 13.1661 3.10619 13.1427 3.10619C13.0732 3.09927 13.0113 3.09927 12.9418 3.09191C12.9343 3.09191 12.9263 3.09191 12.9109 3.09191C12.8259 3.08499 12.741 3.08499 12.6561 3.08499C12.5711 3.08499 12.4782 3.08499 12.3933 3.08499C12.3083 3.08499 12.2154 3.08499 12.1305 3.08499C12.0455 3.08499 11.9606 3.09191 11.8757 3.09191C11.8677 3.09191 11.8602 3.09191 11.8447 3.09191C11.7673 3.09191 11.6978 3.09927 11.6204 3.10619C11.6049 3.10619 11.5974 3.10619 11.5819 3.10619C11.5045 3.11311 11.4275 3.12047 11.3501 3.12739V0.947814C11.6978 0.91926 12.0455 0.904984 12.3933 0.904984C12.5941 0.904984 12.795 0.911905 12.9958 0.91926C13.1427 0.933537 13.2896 0.940459 13.4364 0.954736Z" fill="#009ADD"/>
<path d="M24.3927 11.9755C24.3927 12.1178 24.3927 12.2675 24.3851 12.4098C24.3772 12.5881 24.3697 12.7659 24.3462 12.9372H21.9821C21.9821 12.9298 21.9821 12.9298 21.9821 12.9229C21.9896 12.8727 21.9896 12.823 21.9975 12.7732C21.9975 12.7516 22.005 12.7377 22.005 12.7161C22.005 12.7092 22.005 12.7018 22.005 12.6949C22.005 12.6876 22.005 12.6806 22.005 12.6733C22.005 12.6664 22.005 12.659 22.005 12.659C22.013 12.595 22.013 12.524 22.0205 12.4596C22.0205 12.4526 22.0205 12.4453 22.0205 12.4384C22.0205 12.4029 22.0285 12.3601 22.0285 12.3242C22.0285 12.3103 22.0285 12.303 22.0285 12.2887C22.0285 12.2675 22.0285 12.2458 22.0285 12.2246C22.0285 12.1818 22.0285 12.1321 22.0285 12.0892C22.0285 12.0538 22.0285 12.0179 22.0285 11.9824C22.0285 11.9041 22.0285 11.8184 22.0285 11.7401C22.0285 11.6618 22.0205 11.5835 22.0205 11.5052C22.0205 11.4978 22.0205 11.4909 22.0205 11.4766C22.0205 11.4053 22.013 11.3412 22.005 11.2698C22.005 11.256 22.005 11.2486 22.005 11.2344C21.9975 11.163 21.9896 11.092 21.9821 11.0206H24.3462C24.3772 11.3269 24.3927 11.6475 24.3927 11.9755Z" fill="#009ADD"/>
<path d="M21.5884 19.0848C21.1403 19.5763 20.6457 20.0392 20.1046 20.4454L18.4359 18.9066C18.9845 18.5008 19.4791 18.0448 19.9117 17.546L21.5884 19.0848Z" fill="#009ADD"/>
<path d="M6.35038 18.9066L4.68168 20.4455C4.14813 20.0323 3.64602 19.5763 3.19788 19.0779L4.86704 17.5391C5.31519 18.0448 5.80979 18.5008 6.35038 18.9066Z" fill="#009ADD"/>
<path d="M13.4364 20.8158V22.9958C13.0887 23.0243 12.741 23.0386 12.3933 23.0386C12.038 23.0386 11.6903 23.0243 11.3501 22.9958V20.8158C11.6903 20.8517 12.0455 20.866 12.3933 20.866C12.741 20.866 13.0962 20.8517 13.4364 20.8158Z" fill="#009ADD"/>
<path d="M24.3931 11.9755C24.3931 12.0538 24.3931 12.1321 24.3856 12.2104C24.3856 12.1321 24.3856 12.0538 24.3776 11.9755C24.3701 11.8116 24.3622 11.6407 24.3467 11.4767C24.3312 11.3201 24.3162 11.1631 24.2927 11.0064C23.9914 8.86234 23.0257 6.90341 21.5884 5.32908C21.5109 5.24342 21.434 5.15776 21.3565 5.07945C20.9703 4.68057 20.5527 4.31024 20.1125 3.96803C20.0196 3.89708 19.9272 3.8257 19.8342 3.76167C18.0492 2.45817 15.8469 1.61757 13.4438 1.42505C13.2974 1.41078 13.1506 1.40385 13.0037 1.3965C12.8028 1.38958 12.602 1.38222 12.4007 1.38222C12.0454 1.38222 11.6977 1.3965 11.358 1.42505C8.95442 1.61757 6.76015 2.45817 4.96757 3.76167C4.87466 3.83305 4.78221 3.89708 4.6893 3.96803C4.24866 4.31024 3.83149 4.68792 3.44528 5.08681C3.36786 5.17203 3.2909 5.25034 3.21347 5.336C1.77612 6.91768 0.802871 8.86926 0.509113 11.0138C0.48565 11.1704 0.470165 11.327 0.455148 11.4836C0.439663 11.6476 0.431685 11.8116 0.424177 11.9824C0.424177 12.0608 0.4162 12.1391 0.4162 12.2174C0.4162 12.1391 0.408691 12.0608 0.408691 11.9824C0.408691 11.6549 0.424177 11.3344 0.455148 11.0207C0.671478 8.69145 1.6757 6.56855 3.21347 4.87309C3.66161 4.38119 4.15622 3.91828 4.69727 3.50512C6.52833 2.08048 8.83851 1.16158 11.3655 0.962142C11.7132 0.933588 12.0609 0.919312 12.4087 0.919312C12.6095 0.919312 12.8103 0.926234 13.0112 0.933588C13.1581 0.94051 13.3049 0.947865 13.4518 0.962142C15.9783 1.16158 18.281 2.0874 20.12 3.50512C20.6536 3.91828 21.1477 4.37427 21.6038 4.86573C23.1491 6.55428 24.1458 8.6841 24.3622 11.0138C24.3776 11.327 24.3931 11.6476 24.3931 11.9755Z" fill="#27C1E6"/>
<path d="M22.0364 11.9755C22.0364 16.8854 17.7187 20.866 12.3931 20.866C7.06743 20.866 2.74976 16.8854 2.74976 11.9755C2.74976 7.06516 7.06743 3.08499 12.3931 3.08499C17.7187 3.08499 22.0364 7.06516 22.0364 11.9755Z" fill="#009ADD"/>
<path d="M12.3931 20.866C7.15425 20.866 2.88866 17.0117 2.74976 12.2104V12.4453C2.74976 17.3539 7.06931 21.3358 12.3931 21.3358C17.7169 21.3358 22.0364 17.3539 22.0364 12.4453C22.0364 12.367 22.0364 12.2887 22.0364 12.2104C21.8975 17.0117 17.6319 20.866 12.3931 20.866Z" fill="#27C1E6"/>
<path d="M12.3931 4.01817C17.547 4.01817 21.7581 7.75087 22.0209 12.4453C22.0289 12.2887 22.0364 12.1321 22.0364 11.9755C22.0364 7.06689 17.7169 3.08499 12.3931 3.08499C7.06931 3.08499 2.74976 7.06689 2.74976 11.9755C2.74976 12.1321 2.75726 12.2887 2.76524 12.4453C3.02803 7.75087 7.23918 4.01817 12.3931 4.01817Z" fill="#136DA0"/>
<path d="M7.63354 14.2264L7.5791 14.2762L12.3933 20.3957L17.2074 14.1979L12.3933 16.9191L7.63354 14.2264Z" fill="#136DA0"/>
<path d="M17.2074 13.2504L12.3933 5.94856L7.5791 13.2504L12.3933 15.9717L17.2074 13.2504Z" fill="#136DA0"/>
<path d="M12.3933 15.1527L7.5791 12.431L12.3933 5.12915L17.2074 12.431L12.3933 15.1527Z" fill="white"/>
<path d="M12.3933 16.1001L7.63354 13.407L7.5791 13.4499L12.3933 19.5694L17.2074 13.3785L12.3933 16.1001Z" fill="white"/>
<path d="M12.3931 15.1527V5.12915L17.2072 12.431L12.3931 15.1527Z" fill="#E6E7E8"/>
<path d="M12.3931 16.1001V19.5694L17.2072 13.3785L12.3931 16.1001Z" fill="#E6E7E8"/>
</g>
<defs>
<clipPath id="clip0_73_524">
<rect width="25" height="25" fill="white"/>
</clipPath>
</defs>
</svg>
