<svg width="32" height="32" viewBox="0 0 32 32" fill="none" xmlns="http://www.w3.org/2000/svg">
<path d="M24.7569 13.8384L16.4461 7.74075C16.1808 7.55108 15.8227 7.54897 15.5544 7.74075L7.24356 13.8384C6.40484 14.4538 5.49379 13.1564 6.33377 12.5401L14.6478 6.44014C14.6496 6.43878 14.6515 6.43747 14.6533 6.43611C15.4558 5.85803 16.5353 5.85124 17.3472 6.43611C17.3491 6.43743 17.3509 6.43878 17.3528 6.44014L25.6667 12.5401C26.5084 13.1577 25.5884 14.4485 24.7569 13.8384Z" fill="#FFB700"/>
<g filter="url(#filter0_d_71_328)">
<path d="M21.7777 26H17.4815C17.0723 26 16.7407 25.6523 16.7407 25.2233V22.1166C16.7407 21.6883 16.4084 21.3399 16 21.3399C15.5915 21.3399 15.2592 21.6883 15.2592 22.1166V25.2233C15.2592 25.6523 14.9276 26 14.5185 26H10.2222C8.99689 26 8 24.9547 8 23.6699V16.7033C8 15.9478 8.35104 15.237 8.93922 14.8008L14.7147 10.4293C14.7171 10.4275 14.7195 10.4257 14.7219 10.4239C15.4834 9.86201 16.5076 9.85537 17.278 10.4239C17.2804 10.4257 17.2828 10.4275 17.2852 10.4293L23.0608 14.8009C23.649 15.237 24 15.9478 24 16.7034V23.67C24 24.9547 23.0031 26 21.7777 26ZM18.2222 24.4466H21.7777C22.1862 24.4466 22.5185 24.0982 22.5185 23.6699V16.7033C22.5185 16.4509 22.401 16.2135 22.2041 16.0682C22.2017 16.0664 22.1993 16.0646 22.1969 16.0628L16.4224 11.6921C16.1705 11.5081 15.8315 11.5066 15.5776 11.6921L9.80311 16.0628C9.80074 16.0646 9.79833 16.0664 9.79588 16.0682C9.59903 16.2135 9.48148 16.4509 9.48148 16.7033V23.6699C9.48148 24.0982 9.81377 24.4466 10.2222 24.4466H13.7778V22.1166C13.7778 20.8318 14.7747 19.7865 16 19.7865C17.2253 19.7865 18.2222 20.8318 18.2222 22.1166V24.4466Z" fill="#01B4FF"/>
</g>
<defs>
<filter id="filter0_d_71_328" x="0" y="0" width="32" height="32" filterUnits="userSpaceOnUse" color-interpolation-filters="sRGB">
<feFlood flood-opacity="0" result="BackgroundImageFix"/>
<feColorMatrix in="SourceAlpha" type="matrix" values="0 0 0 0 0 0 0 0 0 0 0 0 0 0 0 0 0 0 127 0" result="hardAlpha"/>
<feOffset dy="-2"/>
<feGaussianBlur stdDeviation="4"/>
<feComposite in2="hardAlpha" operator="out"/>
<feColorMatrix type="matrix" values="0 0 0 0 0.00392157 0 0 0 0 0.705882 0 0 0 0 1 0 0 0 1 0"/>
<feBlend mode="normal" in2="BackgroundImageFix" result="effect1_dropShadow_71_328"/>
<feBlend mode="normal" in="SourceGraphic" in2="effect1_dropShadow_71_328" result="shape"/>
</filter>
</defs>
</svg>
