<svg width="39" height="33" viewBox="0 0 39 33" fill="none" xmlns="http://www.w3.org/2000/svg">
<path d="M10.9306 23.3113L6.65802 19.1659C6.51681 19.0289 6.51681 18.8097 6.65802 18.6766L19.2499 6.45976C19.3911 6.32275 19.617 6.32275 19.7542 6.45976L32.346 18.6766C32.4872 18.8136 32.4872 19.0328 32.346 19.1659L28.0734 23.3113C28.0048 23.3778 27.9161 23.4131 27.8192 23.4131H24.4907C24.293 23.4131 24.1317 23.5696 24.1317 23.7615V32.6511C24.1317 32.9603 24.519 33.1169 24.7409 32.8977L38.8941 19.1659C39.0353 19.0289 39.0353 18.8097 38.8941 18.6766L19.7542 0.102753C19.613 -0.0342511 19.387 -0.0342511 19.2499 0.102753L0.105907 18.6766C-0.0353023 18.8136 -0.0353023 19.0328 0.105907 19.1659L14.2591 32.8977C14.4851 33.1169 14.8683 32.9603 14.8683 32.6511V23.7615C14.8683 23.5696 14.707 23.4131 14.5093 23.4131H11.1808C11.0839 23.4131 10.9952 23.3778 10.9266 23.3113H10.9306Z" fill="#01B4FF"/>
<path d="M21.5324 23.4865H17.5999C17.3357 23.4865 17.1227 23.2784 17.1227 23.0204V19.1795C17.1227 18.9215 16.9097 18.7134 16.6455 18.7134H13.3904C12.9644 18.7134 12.7513 18.2099 13.0496 17.9145L19.2274 11.8805C19.4149 11.6975 19.7174 11.6975 19.9049 11.8805L26.0828 17.9145C26.3853 18.2099 26.1722 18.7134 25.7419 18.7134H22.4868C22.2227 18.7134 22.0096 18.9215 22.0096 19.1795V23.0204C22.0096 23.2784 21.7966 23.4865 21.5324 23.4865Z" fill="white"/>
</svg>
