<svg width="24" height="24" viewBox="0 0 24 24" fill="none" xmlns="http://www.w3.org/2000/svg">
<path d="M10.4673 14.0361L10.6799 14.3835C10.9969 14.9015 11.1673 15.5229 11.1673 16.1603C11.1673 16.5496 11.1037 16.9354 10.9798 17.2967L10.6966 18.1232H13.3034L13.0202 17.2967C12.8963 16.9354 12.8327 16.5496 12.8327 16.1603C12.8327 15.5229 13.0031 14.9015 13.3201 14.3835L13.5326 14.0362" stroke="#526480" stroke-miterlimit="10" stroke-linecap="round" stroke-linejoin="round"/>
<path d="M6.65715 6.07436H4.73559C4.5693 6.07436 4.43948 6.21585 4.45492 6.37974C4.50268 6.88661 4.61698 7.54626 4.87835 8.22989C5.31717 9.37777 6.03521 10.269 7.02306 10.8962" stroke="#526480" stroke-miterlimit="10" stroke-linecap="round" stroke-linejoin="round"/>
<path d="M8.63661 13.0781C5.48803 12.2939 4.1202 10.2618 3.52671 8.6726C2.87745 6.9342 3.00883 5.37317 3.01472 5.30758C3.04744 4.94438 3.3549 4.66596 3.72324 4.66596H6.65717" stroke="#526480" stroke-miterlimit="10" stroke-linecap="round" stroke-linejoin="round"/>
<path d="M17.3428 6.07436H19.2644C19.4307 6.07436 19.5605 6.21585 19.5451 6.37974C19.5181 6.66549 19.4701 6.9998 19.3864 7.35962" stroke="#526480" stroke-miterlimit="10" stroke-linecap="round" stroke-linejoin="round"/>
<path d="M15.3633 13.0781C18.5119 12.2939 19.8798 10.2618 20.4733 8.6726C21.1225 6.9342 20.9912 5.37318 20.9853 5.30759C20.9526 4.94438 20.6451 4.66596 20.2768 4.66596H17.3428" stroke="#526480" stroke-miterlimit="10" stroke-linecap="round" stroke-linejoin="round"/>
<path d="M18.9251 8.68815C18.4896 9.59858 17.8556 10.325 17.0287 10.8629" stroke="#526480" stroke-miterlimit="10" stroke-linecap="round" stroke-linejoin="round"/>
<path d="M9.96085 2H17.6989C17.9065 2 18.0748 2.16667 18.0748 2.37218V3.30663C18.0748 3.51213 17.9065 3.67881 17.6989 3.67881H6.30109C6.09346 3.67881 5.92514 3.51213 5.92514 3.30663V2.37218C5.92514 2.16667 6.09346 2 6.30109 2H8.53145" stroke="#526480" stroke-miterlimit="10" stroke-linecap="round" stroke-linejoin="round"/>
<path d="M12 14.2574C9.04923 14.2574 6.65714 11.8892 6.65714 8.96807V3.67878H17.3428V8.96807C17.3428 11.8892 14.9507 14.2574 12 14.2574Z" stroke="#526480" stroke-miterlimit="10" stroke-linecap="round" stroke-linejoin="round"/>
<path d="M15.2454 20.0616H8.75458V19.1276C8.75458 18.5729 9.20881 18.1232 9.76914 18.1232H14.2308C14.7912 18.1232 15.2454 18.5729 15.2454 19.1276V20.0616Z" stroke="#526480" stroke-miterlimit="10" stroke-linecap="round" stroke-linejoin="round"/>
<path d="M16.6597 22H7.34024C7.19497 22 7.07721 21.8834 7.07721 21.7396V20.322C7.07721 20.1782 7.19497 20.0616 7.34024 20.0616H16.6597C16.805 20.0616 16.9227 20.1782 16.9227 20.322V21.7396C16.9227 21.8834 16.805 22 16.6597 22Z" stroke="#526480" stroke-miterlimit="10" stroke-linecap="round" stroke-linejoin="round"/>
<path d="M12.3782 6.72001L12.7691 7.5042C12.8305 7.62742 12.9493 7.71285 13.0866 7.73261L13.9608 7.85836C14.3068 7.90809 14.4449 8.32892 14.1946 8.57044L13.562 9.18088C13.4626 9.27681 13.4172 9.41499 13.4407 9.55044L13.59 10.4124C13.6491 10.7534 13.2875 11.0135 12.9781 10.8524L12.1962 10.4455C12.0734 10.3816 11.9266 10.3816 11.8037 10.4455L11.0218 10.8524C10.7125 11.0135 10.3509 10.7534 10.4099 10.4124L10.5593 9.55044C10.5827 9.41499 10.5374 9.27681 10.438 9.18088L9.80543 8.57044C9.55513 8.32892 9.69325 7.90809 10.0392 7.85836L10.9133 7.73261C11.0507 7.71285 11.1694 7.62742 11.2309 7.5042L11.6218 6.72001C11.7765 6.40968 12.2235 6.40968 12.3782 6.72001Z" stroke="#526480" stroke-miterlimit="10" stroke-linecap="round" stroke-linejoin="round"/>
</svg>
