<svg width="30" height="30" viewBox="0 0 30 30" fill="none" xmlns="http://www.w3.org/2000/svg">
<g filter="url(#filter0_d_360_2165)">
<path d="M15.0001 9.37499L16.6532 12.7246L20.3498 13.2618L17.6749 15.8691L18.3064 19.5507L15.0001 17.8125L11.6938 19.5507L12.3253 15.8691L9.65039 13.2618L13.347 12.7246L15.0001 9.37499Z" fill="#FFBD2B"/>
</g>
<path d="M26.2969 15.0001C26.2969 21.2133 21.2132 26.2969 15 26.2969C8.78681 26.2969 3.70312 21.2133 3.70312 15.0001C3.70312 8.78688 8.78681 3.7032 15 3.7032C21.2132 3.7032 26.2969 8.78688 26.2969 15.0001Z" stroke="#01B4FF" stroke-width="1.2" stroke-miterlimit="10" stroke-linecap="round" stroke-linejoin="round"/>
<g filter="url(#filter1_d_360_2165)">
<path d="M15 23.4844C10.3473 23.4844 6.51562 19.6528 6.51562 15.0001C6.51562 10.3474 10.3473 6.51569 15 6.51569C19.6527 6.51569 23.4844 10.3474 23.4844 15.0001C23.4844 19.6528 19.6527 23.4844 15 23.4844Z" stroke="#01B4FF" stroke-width="1.2" stroke-miterlimit="10" stroke-linecap="round" stroke-linejoin="round" shape-rendering="crispEdges"/>
</g>
<defs>
<filter id="filter0_d_360_2165" x="1.65039" y="1.37499" width="26.6992" height="26.1757" filterUnits="userSpaceOnUse" color-interpolation-filters="sRGB">
<feFlood flood-opacity="0" result="BackgroundImageFix"/>
<feColorMatrix in="SourceAlpha" type="matrix" values="0 0 0 0 0 0 0 0 0 0 0 0 0 0 0 0 0 0 127 0" result="hardAlpha"/>
<feOffset/>
<feGaussianBlur stdDeviation="4"/>
<feComposite in2="hardAlpha" operator="out"/>
<feColorMatrix type="matrix" values="0 0 0 0 0.00392157 0 0 0 0 0.705882 0 0 0 0 1 0 0 0 1 0"/>
<feBlend mode="normal" in2="BackgroundImageFix" result="effect1_dropShadow_360_2165"/>
<feBlend mode="normal" in="SourceGraphic" in2="effect1_dropShadow_360_2165" result="shape"/>
</filter>
<filter id="filter1_d_360_2165" x="0.916016" y="0.915695" width="28.168" height="28.1687" filterUnits="userSpaceOnUse" color-interpolation-filters="sRGB">
<feFlood flood-opacity="0" result="BackgroundImageFix"/>
<feColorMatrix in="SourceAlpha" type="matrix" values="0 0 0 0 0 0 0 0 0 0 0 0 0 0 0 0 0 0 127 0" result="hardAlpha"/>
<feOffset/>
<feGaussianBlur stdDeviation="2.5"/>
<feComposite in2="hardAlpha" operator="out"/>
<feColorMatrix type="matrix" values="0 0 0 0 0.00392157 0 0 0 0 0.705882 0 0 0 0 1 0 0 0 1 0"/>
<feBlend mode="normal" in2="BackgroundImageFix" result="effect1_dropShadow_360_2165"/>
<feBlend mode="normal" in="SourceGraphic" in2="effect1_dropShadow_360_2165" result="shape"/>
</filter>
</defs>
</svg>
