<svg width="24" height="24" viewBox="0 0 24 24" fill="none" xmlns="http://www.w3.org/2000/svg">
<g clip-path="url(#clip0_200_695)">
<path d="M19.3446 21.5565H16.312V13.8211H23.5312V21.5565" stroke="#526480" stroke-width="1.4" stroke-miterlimit="10" stroke-linecap="round" stroke-linejoin="round"/>
<path d="M12.459 2.70056L13.3984 4.23427L15.1473 4.65375C15.5382 4.74755 15.6921 5.22112 15.4309 5.52675L14.2627 6.89414L14.4041 8.68711C14.4357 9.08784 14.0328 9.38053 13.6615 9.22664L12 8.53805L10.3385 9.22664C9.96718 9.38053 9.56429 9.08784 9.59593 8.68711L9.73735 6.89414L8.56909 5.52675C8.3079 5.22112 8.46184 4.74755 8.85268 4.65375L10.6016 4.23427L11.5411 2.70056C11.751 2.35781 12.249 2.35781 12.459 2.70056Z" stroke="#526480" stroke-width="1.4" stroke-miterlimit="10" stroke-linecap="round" stroke-linejoin="round"/>
<path d="M20.1835 7.94971L20.7196 8.82482L21.7175 9.06421C21.9405 9.1177 22.0283 9.38793 21.8793 9.56231L21.2126 10.3425L21.2934 11.3656C21.3114 11.5942 21.0815 11.7613 20.8697 11.6735L19.9216 11.2806L18.9736 11.6735C18.7617 11.7613 18.5318 11.5942 18.5498 11.3656L18.6305 10.3425L17.9639 9.56231C17.8149 9.38793 17.9027 9.1177 18.1258 9.06421L19.1237 8.82482L19.6597 7.94971C19.7795 7.75415 20.0636 7.75415 20.1835 7.94971Z" stroke="#526480" stroke-width="1.4" stroke-miterlimit="10" stroke-linecap="round" stroke-linejoin="round"/>
<path d="M4.34028 7.94971L4.87634 8.82482L5.87427 9.06421C6.09725 9.1177 6.18505 9.38793 6.03613 9.56231L5.36947 10.3425L5.45019 11.3656C5.46819 11.5942 5.23831 11.7613 5.02649 11.6735L4.07839 11.2806L3.13034 11.6735C2.91847 11.7613 2.68859 11.5942 2.70659 11.3656L2.78736 10.3425L2.1207 9.56231C1.97173 9.38793 2.05953 9.1177 2.28256 9.06421L3.28049 8.82482L3.8165 7.94971C3.93636 7.75415 4.22047 7.75415 4.34028 7.94971Z" stroke="#526480" stroke-width="1.4" stroke-miterlimit="10" stroke-linecap="round" stroke-linejoin="round"/>
<path d="M7.68806 21.5565H0.46875V15.0694H7.68806V21.5565Z" stroke="#526480" stroke-width="1.4" stroke-miterlimit="10" stroke-linecap="round" stroke-linejoin="round"/>
<path d="M16.3119 21.5565H7.68802V12.1023H16.3119V21.5565Z" stroke="#526480" stroke-width="1.4" stroke-miterlimit="10" stroke-linecap="round" stroke-linejoin="round"/>
<path d="M12 15.3626V18.8796" stroke="#526480" stroke-width="1.4" stroke-miterlimit="10" stroke-linecap="round" stroke-linejoin="round"/>
</g>
<defs>
<clipPath id="clip0_200_695">
<rect width="24" height="24" fill="white"/>
</clipPath>
</defs>
</svg>
