<svg width="40" height="30" viewBox="0 0 40 30" fill="none" xmlns="http://www.w3.org/2000/svg">
<g filter="url(#filter0_d_482_531)">
<path d="M27.3451 21.5565H24.3125V13.8211H31.5318V21.5565" stroke="#02B4FF" stroke-width="1.4" stroke-miterlimit="10" stroke-linecap="round" stroke-linejoin="round" shape-rendering="crispEdges"/>
</g>
<path d="M20.4588 2.70056L21.3982 4.23427L23.1472 4.65375C23.538 4.74755 23.6919 5.22112 23.4307 5.52675L22.2625 6.89414L22.4039 8.68711C22.4355 9.08784 22.0327 9.38053 21.6613 9.22664L19.9998 8.53805L18.3383 9.22664C17.967 9.38053 17.5641 9.08784 17.5957 8.68711L17.7372 6.89414L16.5689 5.52675C16.3077 5.22112 16.4617 4.74755 16.8525 4.65375L18.6015 4.23427L19.5409 2.70056C19.7508 2.35781 20.2488 2.35781 20.4588 2.70056Z" stroke="#FFBD2B" stroke-width="1.4" stroke-miterlimit="10" stroke-linecap="round" stroke-linejoin="round"/>
<path d="M28.184 7.94971L28.7201 8.82482L29.718 9.06421C29.941 9.1177 30.0288 9.38793 29.8798 9.56231L29.2132 10.3425L29.294 11.3656C29.312 11.5942 29.0821 11.7613 28.8702 11.6735L27.9222 11.2806L26.9741 11.6735C26.7622 11.7613 26.5324 11.5942 26.5504 11.3656L26.6311 10.3425L25.9644 9.56231C25.8155 9.38793 25.9033 9.1177 26.1263 9.06421L27.1242 8.82482L27.6603 7.94971C27.7801 7.75415 28.0642 7.75415 28.184 7.94971Z" stroke="#02B4FF" stroke-width="1.4" stroke-miterlimit="10" stroke-linecap="round" stroke-linejoin="round"/>
<path d="M12.3403 7.94971L12.8763 8.82482L13.8743 9.06421C14.0973 9.1177 14.185 9.38793 14.0361 9.56231L13.3695 10.3425L13.4502 11.3656C13.4682 11.5942 13.2383 11.7613 13.0265 11.6735L12.0784 11.2806L11.1303 11.6735C10.9185 11.7613 10.6886 11.5942 10.7066 11.3656L10.7874 10.3425L10.1207 9.56231C9.97173 9.38793 10.0595 9.1177 10.2826 9.06421L11.2805 8.82482L11.8165 7.94971C11.9364 7.75415 12.2205 7.75415 12.3403 7.94971Z" stroke="#02B4FF" stroke-width="1.4" stroke-miterlimit="10" stroke-linecap="round" stroke-linejoin="round"/>
<g filter="url(#filter1_d_482_531)">
<path d="M15.6881 21.5565H8.46875V15.0694H15.6881V21.5565Z" stroke="#02B4FF" stroke-width="1.4" stroke-miterlimit="10" stroke-linecap="round" stroke-linejoin="round" shape-rendering="crispEdges"/>
</g>
<g filter="url(#filter2_d_482_531)">
<path d="M24.3114 21.5565H15.6875V12.1023H24.3114V21.5565Z" stroke="#02B4FF" stroke-width="1.4" stroke-miterlimit="10" stroke-linecap="round" stroke-linejoin="round" shape-rendering="crispEdges"/>
</g>
<path d="M20 15.3626V18.8796" stroke="#FFBD2B" stroke-width="1.4" stroke-miterlimit="10" stroke-linecap="round" stroke-linejoin="round"/>
<defs>
<filter id="filter0_d_482_531" x="16.6133" y="6.12112" width="22.6191" height="23.1354" filterUnits="userSpaceOnUse" color-interpolation-filters="sRGB">
<feFlood flood-opacity="0" result="BackgroundImageFix"/>
<feColorMatrix in="SourceAlpha" type="matrix" values="0 0 0 0 0 0 0 0 0 0 0 0 0 0 0 0 0 0 127 0" result="hardAlpha"/>
<feOffset/>
<feGaussianBlur stdDeviation="3.5"/>
<feComposite in2="hardAlpha" operator="out"/>
<feColorMatrix type="matrix" values="0 0 0 0 0.00392157 0 0 0 0 0.705882 0 0 0 0 1 0 0 0 1 0"/>
<feBlend mode="normal" in2="BackgroundImageFix" result="effect1_dropShadow_482_531"/>
<feBlend mode="normal" in="SourceGraphic" in2="effect1_dropShadow_482_531" result="shape"/>
</filter>
<filter id="filter1_d_482_531" x="0.769531" y="7.36943" width="22.6191" height="21.8871" filterUnits="userSpaceOnUse" color-interpolation-filters="sRGB">
<feFlood flood-opacity="0" result="BackgroundImageFix"/>
<feColorMatrix in="SourceAlpha" type="matrix" values="0 0 0 0 0 0 0 0 0 0 0 0 0 0 0 0 0 0 127 0" result="hardAlpha"/>
<feOffset/>
<feGaussianBlur stdDeviation="3.5"/>
<feComposite in2="hardAlpha" operator="out"/>
<feColorMatrix type="matrix" values="0 0 0 0 0.00392157 0 0 0 0 0.705882 0 0 0 0 1 0 0 0 1 0"/>
<feBlend mode="normal" in2="BackgroundImageFix" result="effect1_dropShadow_482_531"/>
<feBlend mode="normal" in="SourceGraphic" in2="effect1_dropShadow_482_531" result="shape"/>
</filter>
<filter id="filter2_d_482_531" x="7.98828" y="4.40233" width="24.0234" height="24.8541" filterUnits="userSpaceOnUse" color-interpolation-filters="sRGB">
<feFlood flood-opacity="0" result="BackgroundImageFix"/>
<feColorMatrix in="SourceAlpha" type="matrix" values="0 0 0 0 0 0 0 0 0 0 0 0 0 0 0 0 0 0 127 0" result="hardAlpha"/>
<feOffset/>
<feGaussianBlur stdDeviation="3.5"/>
<feComposite in2="hardAlpha" operator="out"/>
<feColorMatrix type="matrix" values="0 0 0 0 0.00392157 0 0 0 0 0.705882 0 0 0 0 1 0 0 0 1 0"/>
<feBlend mode="normal" in2="BackgroundImageFix" result="effect1_dropShadow_482_531"/>
<feBlend mode="normal" in="SourceGraphic" in2="effect1_dropShadow_482_531" result="shape"/>
</filter>
</defs>
</svg>
