<svg width="264" height="47" viewBox="0 0 264 47" fill="none" xmlns="http://www.w3.org/2000/svg">
  <g clip-path="url(#clip0_1099_862)">
    <path d="M15.3494 33.2009L9.34956 27.2969C9.15127 27.1018 9.15127 26.7896 9.34956 26.6L27.0317 9.20026C27.23 9.00513 27.5473 9.00513 27.7399 9.20026L45.4221 26.6C45.6204 26.7952 45.6204 27.1074 45.4221 27.2969L39.4223 33.2009C39.3259 33.2957 39.2013 33.3459 39.0653 33.3459H34.3913C34.1136 33.3459 33.887 33.5689 33.887 33.8421V46.5031C33.887 46.9435 34.4309 47.1665 34.7425 46.8543L54.6172 27.2969C54.8155 27.1018 54.8155 26.7896 54.6172 26.6L27.7399 0.146346C27.5416 -0.0487819 27.2243 -0.0487819 27.0317 0.146346L0.14872 26.6C-0.0495735 26.7952 -0.0495735 27.1074 0.14872 27.2969L20.0234 46.8543C20.3407 47.1665 20.8789 46.9435 20.8789 46.5031V33.8421C20.8789 33.5689 20.6523 33.3459 20.3747 33.3459H15.7006C15.5647 33.3459 15.44 33.2957 15.3437 33.2009H15.3494Z" fill="#01B4FF"/>
    <path d="M30.237 33.4504H24.7147C24.3437 33.4504 24.0446 33.1541 24.0446 32.7866V27.3163C24.0446 26.9488 23.7454 26.6525 23.3745 26.6525H18.8035C18.2052 26.6525 17.9061 25.9353 18.3249 25.5145L27.0002 16.9208C27.2634 16.66 27.6882 16.66 27.9515 16.9208L36.6268 25.5145C37.0516 25.9353 36.7524 26.6525 36.1481 26.6525H31.5771C31.2062 26.6525 30.9071 26.9488 30.9071 27.3163V32.7866C30.9071 33.1541 30.6079 33.4504 30.237 33.4504Z" fill="white"/>
    <path d="M71.6169 10.0069H77.4618V31.2502H90.1354V36.6586H71.6169V10.0069Z" fill="white"/>
    <path d="M93.2218 10.0069H110.158V15.4153H99.0667V20.2104H108.943V25.6188H99.0667V31.2502H110.158V36.6586H93.2218V10.0069Z" fill="white"/>
    <path d="M145.266 9.9697H151.381L142.219 36.6586H137.512L131.705 19.5227L125.938 36.6586H121.212L111.952 9.9697H118.202L123.7 27.1428L129.429 9.9697H134.117L139.846 27.1428L145.266 9.9697Z" fill="white"/>
    <path d="M158.673 20.898L163.978 15.4153H153.079V10.0069H172.234V13.7054L165.675 20.2104C167.656 20.3962 169.282 21.2078 170.556 22.6451C171.829 24.07 172.465 25.8108 172.465 27.8676C172.465 30.5439 171.507 32.7432 169.591 34.4655C167.688 36.1754 165.251 37.0303 162.28 37.0303C160.467 37.0303 158.821 36.6834 157.342 35.9895C155.863 35.2833 154.68 34.3044 153.793 33.053C152.905 31.7892 152.404 30.3643 152.288 28.7783H158.133C158.3 29.5713 158.744 30.2342 159.464 30.767C160.197 31.2997 161.136 31.5661 162.28 31.5661C163.502 31.5661 164.505 31.2068 165.289 30.4882C166.074 29.7695 166.466 28.8465 166.466 27.7189C166.466 26.9383 166.248 26.2754 165.81 25.7303C165.373 25.1727 164.788 24.7638 164.055 24.5036C163.335 24.2434 162.505 24.1133 161.566 24.1133C160.628 24.1133 159.663 24.2496 158.673 24.5222V20.898Z" fill="white"/>
    <path d="M175.667 10.0069H181.512V31.2502H194.186V36.6586H175.667V10.0069Z" fill="white"/>
    <path d="M228.95 36.9931C226.867 36.9931 224.989 36.5347 223.317 35.6178C221.645 34.7009 220.334 33.4309 219.382 31.8078C218.443 30.1846 217.974 28.3632 217.974 26.3436V10.0069H223.819V26.3436C223.819 27.8304 224.307 29.0695 225.285 30.0607C226.262 31.0396 227.484 31.529 228.95 31.529C230.416 31.529 231.631 31.0396 232.596 30.0607C233.56 29.0695 234.042 27.8304 234.042 26.3436V10.0069H239.887V26.3436C239.887 28.3632 239.412 30.1846 238.46 31.8078C237.521 33.4309 236.216 34.7009 234.544 35.6178C232.885 36.5347 231.02 36.9931 228.95 36.9931Z" fill="white"/>
    <path d="M254.625 10.0069C257.338 10.0069 259.576 10.8122 261.338 12.423C263.113 14.0337 264 16.072 264 18.5376C264 21.0281 263.113 23.0911 261.338 24.7266C259.576 26.3622 257.338 27.1799 254.625 27.1799H249.938V36.6586H244.093V10.0069H254.625ZM254.625 21.7715C255.628 21.7715 256.458 21.468 257.113 20.8608C257.782 20.2413 258.116 19.4669 258.116 18.5376C258.116 17.6455 257.782 16.9021 257.113 16.3074C256.458 15.7126 255.628 15.4153 254.625 15.4153H249.938V21.7715H254.625Z" fill="white"/>
    <rect x="198" y="19.9394" width="12.6383" height="4.27273" fill="white"/>
  </g>
  <defs>
    <clipPath id="clip0_1099_862">
      <rect width="264" height="47" fill="white"/>
    </clipPath>
  </defs>
</svg>
